<svg width="1920" height="1669" viewBox="0 0 1920 1669" fill="none" xmlns="http://www.w3.org/2000/svg">
<rect x="125" width="1669" height="1669" fill="#FEB3B0"/>
<g filter="url(#filter0_d_207_121)">
<path d="M471.967 863.128C476.879 863.128 481.689 864.049 486.396 865.891C491.103 867.528 495.299 870.087 498.983 873.566C502.872 876.841 505.942 881.036 508.193 886.153C510.649 891.065 511.877 896.898 511.877 903.652C511.877 911.429 510.24 918.695 506.965 925.449C503.69 932.203 498.881 938.241 492.536 943.562C486.191 948.679 478.209 952.67 468.59 955.535C459.175 958.605 448.328 960.14 436.048 960.14H370.35C355 960.14 343.232 957.889 335.045 953.386C326.858 948.679 322.765 941.72 322.765 932.51C322.765 923.914 323.788 915.625 325.835 907.643C328.086 899.661 330.44 891.781 332.896 884.004C335.352 876.022 337.603 868.142 339.65 860.365C341.901 852.588 343.027 844.606 343.027 836.419C343.027 829.256 341.901 822.809 339.65 817.078C337.603 811.347 335.352 806.026 332.896 801.114C330.44 795.997 328.086 791.188 325.835 786.685C323.788 781.978 322.765 776.963 322.765 771.642C322.765 763.046 326.858 756.292 335.045 751.38C343.232 746.468 355 744.012 370.35 744.012C385.7 744.012 397.468 746.468 405.655 751.38C413.842 756.292 417.935 763.046 417.935 771.642C417.935 778.805 416.809 785.559 414.558 791.904C412.511 798.249 410.26 804.9 407.804 811.859C405.348 818.818 402.994 826.39 400.743 834.577C398.696 842.764 397.673 852.383 397.673 863.435C397.673 874.078 399.617 882.469 403.506 888.609C407.599 894.749 412.921 897.819 419.47 897.819C424.587 897.819 428.782 896.079 432.057 892.6C435.332 888.916 438.606 884.925 441.881 880.627C445.36 876.124 449.351 872.133 453.854 868.654C458.357 864.97 464.394 863.128 471.967 863.128ZM618.006 744.012C632.332 744.012 645.533 746.57 657.609 751.687C669.889 756.804 680.429 764.069 689.23 773.484C698.03 782.899 704.887 794.258 709.799 807.561C714.915 820.864 717.474 835.703 717.474 852.076C717.474 865.379 715.325 878.478 711.027 891.372C706.729 904.266 700.282 915.83 691.686 926.063C683.294 936.092 672.856 944.278 660.372 950.623C648.092 956.968 633.97 960.14 618.006 960.14C602.042 960.14 587.817 956.968 575.333 950.623C563.053 944.278 552.615 936.092 544.019 926.063C535.627 915.83 529.283 904.266 524.985 891.372C520.687 878.478 518.538 865.379 518.538 852.076C518.538 835.703 520.994 820.864 525.906 807.561C530.818 794.258 537.674 782.899 546.475 773.484C555.48 764.069 566.02 756.804 578.096 751.687C590.171 746.57 603.474 744.012 618.006 744.012ZM618.006 863.435C621.894 863.435 625.783 862.616 629.672 860.979C633.56 859.342 636.937 856.988 639.803 853.918C642.873 850.643 645.329 846.755 647.171 842.252C649.013 837.545 649.934 832.326 649.934 826.595C649.934 820.455 649.013 814.827 647.171 809.71C645.329 804.389 642.873 799.886 639.803 796.202C636.937 792.313 633.56 789.346 629.672 787.299C625.783 785.048 621.894 783.922 618.006 783.922C613.912 783.922 609.921 785.048 606.033 787.299C602.349 789.346 598.972 792.313 595.902 796.202C593.036 799.886 590.683 804.389 588.841 809.71C586.999 814.827 586.078 820.455 586.078 826.595C586.078 832.326 586.999 837.545 588.841 842.252C590.683 846.755 593.036 850.643 595.902 853.918C598.972 856.988 602.349 859.342 606.033 860.979C609.921 862.616 613.912 863.435 618.006 863.435ZM994.536 744.012C1009.89 744.012 1021.65 746.263 1029.84 750.766C1038.03 755.269 1042.12 762.125 1042.12 771.335C1042.12 780.75 1039.56 791.699 1034.45 804.184C1029.53 816.464 1024.01 829.665 1017.87 843.787C1011.73 857.704 1006.1 872.236 1000.98 887.381C996.071 902.526 993.615 917.569 993.615 932.51C993.615 942.334 988.908 949.395 979.493 953.693C970.079 957.786 956.775 959.935 939.583 960.14C922.187 959.935 908.781 957.786 899.366 953.693C890.156 949.395 885.551 942.334 885.551 932.51C885.551 930.259 885.142 927.803 884.323 925.142C883.505 922.277 881.867 920.844 879.411 920.844C877.16 920.844 875.625 922.277 874.806 925.142C873.988 927.803 873.578 930.259 873.578 932.51C873.578 942.334 868.871 949.395 859.456 953.693C850.042 957.786 836.738 959.935 819.546 960.14C802.15 959.935 788.744 957.786 779.329 953.693C770.119 949.395 765.514 942.334 765.514 932.51C765.514 917.569 762.956 902.526 757.839 887.381C752.927 872.236 747.401 857.704 741.261 843.787C735.121 829.665 729.493 816.464 724.376 804.184C719.464 791.699 717.008 780.75 717.008 771.335C717.008 762.125 721.102 755.269 729.288 750.766C737.475 746.263 749.243 744.012 764.593 744.012C779.943 744.012 791.712 746.263 799.898 750.766C808.085 755.269 812.178 762.125 812.178 771.335C812.178 779.317 811.871 786.583 811.257 793.132C810.643 799.681 809.927 805.924 809.108 811.859C808.29 817.794 807.573 823.525 806.959 829.051C806.345 834.577 806.038 840.308 806.038 846.243C806.038 850.95 807.573 855.044 810.643 858.523C813.918 861.798 818.523 863.435 824.458 863.435C830.394 863.435 834.896 861.798 837.966 858.523C841.241 855.044 842.878 850.95 842.878 846.243C842.878 840.308 842.264 834.577 841.036 829.051C840.013 823.525 838.785 817.794 837.352 811.859C836.124 805.924 834.896 799.681 833.668 793.132C832.645 786.583 832.133 779.317 832.133 771.335C832.133 762.125 836.124 755.269 844.106 750.766C852.293 746.263 864.061 744.012 879.411 744.012C894.761 744.012 906.53 746.263 914.716 750.766C922.903 755.269 926.996 762.125 926.996 771.335V771.642C926.996 779.624 926.382 786.89 925.154 793.439C924.131 799.988 922.903 806.231 921.47 812.166C920.038 817.897 918.707 823.525 917.479 829.051C916.456 834.577 915.944 840.308 915.944 846.243C915.944 850.95 917.377 855.044 920.242 858.523C923.108 861.798 927.815 863.435 934.364 863.435C940.3 863.435 944.802 861.798 947.872 858.523C951.147 855.044 952.784 850.95 952.784 846.243C952.784 840.308 952.477 834.577 951.863 829.051C951.249 823.525 950.533 817.794 949.714 811.859C949.1 805.924 948.486 799.681 947.872 793.132C947.258 786.583 946.951 779.317 946.951 771.335C946.951 762.125 951.045 755.269 959.231 750.766C967.418 746.263 979.186 744.012 994.536 744.012ZM1229.52 871.724C1235.25 871.724 1240.57 872.85 1245.48 875.101C1250.4 877.148 1254.59 880.013 1258.07 883.697C1261.55 887.381 1264.31 891.679 1266.36 896.591C1268.41 901.503 1269.43 906.722 1269.43 912.248C1269.43 919.616 1268.2 926.268 1265.75 932.203C1263.5 938.138 1260.22 943.255 1255.92 947.553C1251.62 951.646 1246.51 954.716 1240.57 956.763C1234.84 959.014 1228.5 960.14 1221.54 960.14C1214.38 960.14 1207.83 958.503 1201.89 955.228C1195.96 951.953 1190.53 947.86 1185.62 942.948C1180.71 937.831 1176.21 932.408 1172.11 926.677C1168.22 920.946 1164.64 915.625 1161.37 910.713C1158.09 905.596 1155.12 901.401 1152.46 898.126C1149.8 894.851 1147.45 893.214 1145.4 893.214C1142.54 893.214 1141.1 894.954 1141.1 898.433C1141.1 900.684 1141.62 903.243 1142.64 906.108C1143.87 908.973 1145.2 911.941 1146.63 915.011C1148.06 918.081 1149.29 921.151 1150.31 924.221C1151.54 927.291 1152.16 930.054 1152.16 932.51C1152.16 941.72 1148.06 948.679 1139.88 953.386C1131.69 957.889 1119.92 960.14 1104.57 960.14C1089.22 960.14 1077.45 957.889 1069.27 953.386C1061.08 948.679 1056.99 941.72 1056.99 932.51C1056.99 923.914 1058.01 915.625 1060.06 907.643C1062.31 899.661 1064.66 891.781 1067.12 884.004C1069.57 876.022 1071.83 868.142 1073.87 860.365C1076.12 852.588 1077.25 844.606 1077.25 836.419C1077.25 829.256 1076.12 822.809 1073.87 817.078C1071.83 811.347 1069.57 806.026 1067.12 801.114C1064.66 795.997 1062.31 791.188 1060.06 786.685C1058.01 781.978 1056.99 776.963 1056.99 771.642C1056.99 763.046 1061.08 756.292 1069.27 751.38C1077.45 746.468 1089.22 744.012 1104.57 744.012C1119.92 744.012 1131.69 746.468 1139.88 751.38C1148.06 756.292 1152.16 763.046 1152.16 771.642C1152.16 776.963 1151.03 781.978 1148.78 786.685C1146.73 791.188 1144.48 795.997 1142.03 801.114C1139.57 806.026 1137.22 811.347 1134.96 817.078C1132.92 822.809 1131.89 829.256 1131.89 836.419C1131.89 844.196 1134.66 848.085 1140.18 848.085C1143.05 848.085 1146.02 846.243 1149.09 842.559C1152.16 838.875 1155.02 833.758 1157.68 827.209C1160.34 820.455 1162.49 812.371 1164.13 802.956C1165.77 793.541 1166.59 783.103 1166.59 771.642C1166.59 763.046 1170.68 756.292 1178.87 751.38C1187.05 746.468 1198.82 744.012 1214.17 744.012C1229.52 744.012 1241.29 746.468 1249.48 751.38C1257.66 756.292 1261.76 763.046 1261.76 771.642C1261.76 780.443 1259.71 788.425 1255.62 795.588C1251.73 802.751 1246.82 809.301 1240.88 815.236C1234.94 821.171 1228.5 826.595 1221.54 831.507C1214.58 836.214 1208.13 840.717 1202.2 845.015C1196.26 849.108 1191.25 852.997 1187.15 856.681C1183.27 860.365 1181.32 864.049 1181.32 867.733C1181.32 872.031 1182.65 875.101 1185.31 876.943C1187.97 878.58 1190.53 879.399 1192.99 879.399C1196.26 879.399 1199.33 878.99 1202.2 878.171C1205.27 877.352 1208.13 876.534 1210.79 875.715C1213.66 874.692 1216.52 873.771 1219.39 872.952C1222.46 872.133 1225.84 871.724 1229.52 871.724ZM1379.41 771.642C1379.41 776.963 1378.28 781.978 1376.03 786.685C1373.99 791.188 1371.73 795.997 1369.28 801.114C1366.82 806.026 1364.47 811.347 1362.22 817.078C1360.17 822.809 1359.15 829.256 1359.15 836.419C1359.15 844.606 1360.17 852.588 1362.22 860.365C1364.47 868.142 1366.82 876.022 1369.28 884.004C1371.73 891.781 1373.99 899.661 1376.03 907.643C1378.28 915.625 1379.41 923.914 1379.41 932.51C1379.41 941.72 1375.32 948.679 1367.13 953.386C1358.94 957.889 1347.17 960.14 1331.82 960.14C1316.47 960.14 1304.71 957.889 1296.52 953.386C1288.33 948.679 1284.24 941.72 1284.24 932.51C1284.24 923.914 1285.26 915.625 1287.31 907.643C1289.56 899.661 1291.91 891.781 1294.37 884.004C1296.83 876.022 1299.08 868.142 1301.12 860.365C1303.38 852.588 1304.5 844.606 1304.5 836.419C1304.5 829.256 1303.38 822.809 1301.12 817.078C1299.08 811.347 1296.83 806.026 1294.37 801.114C1291.91 795.997 1289.56 791.188 1287.31 786.685C1285.26 781.978 1284.24 776.963 1284.24 771.642C1284.24 763.046 1288.33 756.292 1296.52 751.38C1304.71 746.468 1316.47 744.012 1331.82 744.012C1347.17 744.012 1358.94 746.468 1367.13 751.38C1375.32 756.292 1379.41 763.046 1379.41 771.642ZM1545.61 862.821C1550.73 862.821 1555.54 863.742 1560.04 865.584C1564.75 867.221 1568.84 869.677 1572.32 872.952C1575.8 876.022 1578.56 879.808 1580.61 884.311C1582.66 888.609 1583.68 893.316 1583.68 898.433C1583.68 906.824 1582.14 914.806 1579.07 922.379C1576.21 929.747 1571.91 936.296 1566.18 942.027C1560.65 947.553 1553.7 951.953 1545.3 955.228C1536.91 958.503 1527.19 960.14 1516.14 960.14H1442.15C1426.8 960.14 1415.03 957.889 1406.85 953.386C1398.66 948.679 1394.57 941.72 1394.57 932.51C1394.57 923.914 1395.59 915.625 1397.64 907.643C1399.89 899.661 1402.24 891.781 1404.7 884.004C1407.15 876.022 1409.41 868.142 1411.45 860.365C1413.7 852.588 1414.83 844.606 1414.83 836.419C1414.83 829.256 1413.7 822.809 1411.45 817.078C1409.41 811.347 1407.15 806.026 1404.7 801.114C1402.24 795.997 1399.89 791.188 1397.64 786.685C1395.59 781.978 1394.57 776.963 1394.57 771.642C1394.57 763.046 1398.66 756.292 1406.85 751.38C1415.03 746.468 1426.8 744.012 1442.15 744.012H1523.2C1530.16 744.012 1536.91 744.831 1543.46 746.468C1550.22 748.105 1556.15 750.766 1561.27 754.45C1566.38 757.929 1570.48 762.534 1573.55 768.265C1576.62 773.791 1578.15 780.545 1578.15 788.527C1578.15 799.374 1574.88 808.073 1568.33 814.622C1561.78 821.171 1553.59 824.446 1543.77 824.446C1536.2 824.446 1529.85 822.399 1524.73 818.306C1519.82 814.008 1515.32 809.301 1511.23 804.184C1507.34 799.067 1503.45 794.462 1499.56 790.369C1495.88 786.071 1491.48 783.922 1486.36 783.922C1482.06 783.922 1478.07 785.662 1474.39 789.141C1470.91 792.416 1469.17 796.816 1469.17 802.342C1469.17 804.184 1469.47 806.128 1470.09 808.175C1470.91 810.222 1471.93 812.166 1473.16 814.008C1474.39 815.645 1475.92 817.078 1477.76 818.306C1479.81 819.534 1482.06 820.148 1484.52 820.148C1486.56 820.148 1488.41 819.739 1490.04 818.92C1491.89 817.897 1493.52 816.873 1494.96 815.85C1496.59 814.622 1498.13 813.599 1499.56 812.78C1500.99 811.757 1502.53 811.245 1504.17 811.245C1510.1 811.245 1514.71 814.11 1517.98 819.841C1521.26 825.572 1522.89 832.326 1522.89 840.103C1522.89 848.29 1521.36 855.146 1518.29 860.672C1515.22 866.198 1510.72 868.961 1504.78 868.961C1503.14 868.961 1501.51 868.552 1499.87 867.733C1498.44 866.71 1496.9 865.686 1495.26 864.663C1493.83 863.435 1492.3 862.412 1490.66 861.593C1489.02 860.57 1487.28 860.058 1485.44 860.058C1480.73 860.058 1476.84 862.002 1473.77 865.891C1470.7 869.575 1469.17 873.873 1469.17 878.785C1469.17 883.697 1470.81 888.097 1474.08 891.986C1477.56 895.875 1482.16 897.819 1487.89 897.819C1494.03 897.819 1499.15 895.977 1503.24 892.293C1507.34 888.609 1511.23 884.618 1514.91 880.32C1518.8 876.022 1523 872.031 1527.5 868.347C1532.21 864.663 1538.24 862.821 1545.61 862.821Z" fill="#9A0002"/>
</g>
<path d="M477.816 1045V1000.48H487.176V1045H477.816ZM511.223 1045.48C507.783 1045.48 504.723 1044.76 502.043 1043.32C499.403 1041.88 497.303 1039.92 495.743 1037.44C494.223 1034.92 493.463 1032.06 493.463 1028.86C493.463 1025.62 494.223 1022.76 495.743 1020.28C497.303 1017.76 499.403 1015.8 502.043 1014.4C504.723 1012.96 507.783 1012.24 511.223 1012.24C514.623 1012.24 517.663 1012.96 520.343 1014.4C523.023 1015.8 525.123 1017.74 526.643 1020.22C528.163 1022.7 528.923 1025.58 528.923 1028.86C528.923 1032.06 528.163 1034.92 526.643 1037.44C525.123 1039.92 523.023 1041.88 520.343 1043.32C517.663 1044.76 514.623 1045.48 511.223 1045.48ZM511.223 1037.8C512.783 1037.8 514.183 1037.44 515.423 1036.72C516.663 1036 517.643 1034.98 518.363 1033.66C519.083 1032.3 519.443 1030.7 519.443 1028.86C519.443 1026.98 519.083 1025.38 518.363 1024.06C517.643 1022.74 516.663 1021.72 515.423 1021C514.183 1020.28 512.783 1019.92 511.223 1019.92C509.663 1019.92 508.263 1020.28 507.023 1021C505.783 1021.72 504.783 1022.74 504.023 1024.06C503.303 1025.38 502.943 1026.98 502.943 1028.86C502.943 1030.7 503.303 1032.3 504.023 1033.66C504.783 1034.98 505.783 1036 507.023 1036.72C508.263 1037.44 509.663 1037.8 511.223 1037.8ZM541.68 1045L530.04 1012.72H538.86L548.52 1040.5H544.32L554.4 1012.72H562.32L572.1 1040.5H567.9L577.86 1012.72H586.14L574.44 1045H565.38L556.8 1021.18H559.56L550.68 1045H541.68ZM620.895 1045.3C617.775 1045.3 614.975 1044.62 612.495 1043.26C610.055 1041.86 608.135 1039.96 606.735 1037.56C605.335 1035.12 604.635 1032.34 604.635 1029.22C604.635 1026.06 605.335 1023.28 606.735 1020.88C608.135 1018.48 610.055 1016.6 612.495 1015.24C614.975 1013.88 617.775 1013.2 620.895 1013.2C623.575 1013.2 625.995 1013.72 628.155 1014.76C630.315 1015.8 632.015 1017.36 633.255 1019.44L630.075 1021.6C628.995 1020 627.655 1018.82 626.055 1018.06C624.455 1017.3 622.715 1016.92 620.835 1016.92C618.595 1016.92 616.575 1017.44 614.775 1018.48C612.975 1019.48 611.555 1020.9 610.515 1022.74C609.475 1024.58 608.955 1026.74 608.955 1029.22C608.955 1031.7 609.475 1033.86 610.515 1035.7C611.555 1037.54 612.975 1038.98 614.775 1040.02C616.575 1041.02 618.595 1041.52 620.835 1041.52C622.715 1041.52 624.455 1041.14 626.055 1040.38C627.655 1039.62 628.995 1038.46 630.075 1036.9L633.255 1039.06C632.015 1041.1 630.315 1042.66 628.155 1043.74C625.995 1044.78 623.575 1045.3 620.895 1045.3ZM661.364 1045V1038.04L661.184 1036.9V1025.26C661.184 1022.58 660.424 1020.52 658.904 1019.08C657.424 1017.64 655.204 1016.92 652.244 1016.92C650.204 1016.92 648.264 1017.26 646.424 1017.94C644.584 1018.62 643.024 1019.52 641.744 1020.64L639.824 1017.46C641.424 1016.1 643.344 1015.06 645.584 1014.34C647.824 1013.58 650.184 1013.2 652.664 1013.2C656.744 1013.2 659.884 1014.22 662.084 1016.26C664.324 1018.26 665.444 1021.32 665.444 1025.44V1045H661.364ZM650.504 1045.3C648.144 1045.3 646.084 1044.92 644.324 1044.16C642.604 1043.36 641.284 1042.28 640.364 1040.92C639.444 1039.52 638.984 1037.92 638.984 1036.12C638.984 1034.48 639.364 1033 640.124 1031.68C640.924 1030.32 642.204 1029.24 643.964 1028.44C645.764 1027.6 648.164 1027.18 651.164 1027.18H662.024V1030.36H651.284C648.244 1030.36 646.124 1030.9 644.924 1031.98C643.764 1033.06 643.184 1034.4 643.184 1036C643.184 1037.8 643.884 1039.24 645.284 1040.32C646.684 1041.4 648.644 1041.94 651.164 1041.94C653.564 1041.94 655.624 1041.4 657.344 1040.32C659.104 1039.2 660.384 1037.6 661.184 1035.52L662.144 1038.46C661.344 1040.54 659.944 1042.2 657.944 1043.44C655.984 1044.68 653.504 1045.3 650.504 1045.3ZM677.014 1045V1000.48H681.274V1045H677.014ZM705.968 1045.3C702.928 1045.3 700.188 1044.62 697.748 1043.26C695.348 1041.86 693.448 1039.96 692.048 1037.56C690.648 1035.12 689.948 1032.34 689.948 1029.22C689.948 1026.06 690.648 1023.28 692.048 1020.88C693.448 1018.48 695.348 1016.6 697.748 1015.24C700.148 1013.88 702.888 1013.2 705.968 1013.2C709.088 1013.2 711.848 1013.88 714.248 1015.24C716.688 1016.6 718.588 1018.48 719.948 1020.88C721.348 1023.28 722.048 1026.06 722.048 1029.22C722.048 1032.34 721.348 1035.12 719.948 1037.56C718.588 1039.96 716.688 1041.86 714.248 1043.26C711.808 1044.62 709.048 1045.3 705.968 1045.3ZM705.968 1041.52C708.248 1041.52 710.268 1041.02 712.028 1040.02C713.788 1038.98 715.168 1037.54 716.168 1035.7C717.208 1033.82 717.728 1031.66 717.728 1029.22C717.728 1026.74 717.208 1024.58 716.168 1022.74C715.168 1020.9 713.788 1019.48 712.028 1018.48C710.268 1017.44 708.268 1016.92 706.028 1016.92C703.788 1016.92 701.788 1017.44 700.028 1018.48C698.268 1019.48 696.868 1020.9 695.828 1022.74C694.788 1024.58 694.268 1026.74 694.268 1029.22C694.268 1031.66 694.788 1033.82 695.828 1035.7C696.868 1037.54 698.268 1038.98 700.028 1040.02C701.788 1041.02 703.768 1041.52 705.968 1041.52ZM730.745 1045V1013.5H734.825V1022.08L734.405 1020.58C735.285 1018.18 736.765 1016.36 738.845 1015.12C740.925 1013.84 743.505 1013.2 746.585 1013.2V1017.34C746.425 1017.34 746.265 1017.34 746.105 1017.34C745.945 1017.3 745.785 1017.28 745.625 1017.28C742.305 1017.28 739.705 1018.3 737.825 1020.34C735.945 1022.34 735.005 1025.2 735.005 1028.92V1045H730.745ZM754.358 1045V1013.5H758.618V1045H754.358ZM756.518 1006.54C755.638 1006.54 754.898 1006.24 754.298 1005.64C753.698 1005.04 753.398 1004.32 753.398 1003.48C753.398 1002.64 753.698 1001.94 754.298 1001.38C754.898 1000.78 755.638 1000.48 756.518 1000.48C757.398 1000.48 758.138 1000.76 758.738 1001.32C759.338 1001.88 759.638 1002.58 759.638 1003.42C759.638 1004.3 759.338 1005.04 758.738 1005.64C758.178 1006.24 757.438 1006.54 756.518 1006.54ZM783.851 1045.3C780.571 1045.3 777.691 1044.62 775.211 1043.26C772.731 1041.86 770.791 1039.96 769.391 1037.56C767.991 1035.12 767.291 1032.34 767.291 1029.22C767.291 1026.1 767.951 1023.34 769.271 1020.94C770.631 1018.54 772.471 1016.66 774.791 1015.3C777.151 1013.9 779.791 1013.2 782.711 1013.2C785.671 1013.2 788.291 1013.88 790.571 1015.24C792.891 1016.56 794.711 1018.44 796.031 1020.88C797.351 1023.28 798.011 1026.06 798.011 1029.22C798.011 1029.42 797.991 1029.64 797.951 1029.88C797.951 1030.08 797.951 1030.3 797.951 1030.54H770.531V1027.36H795.671L793.991 1028.62C793.991 1026.34 793.491 1024.32 792.491 1022.56C791.531 1020.76 790.211 1019.36 788.531 1018.36C786.851 1017.36 784.911 1016.86 782.711 1016.86C780.551 1016.86 778.611 1017.36 776.891 1018.36C775.171 1019.36 773.831 1020.76 772.871 1022.56C771.911 1024.36 771.431 1026.42 771.431 1028.74V1029.4C771.431 1031.8 771.951 1033.92 772.991 1035.76C774.071 1037.56 775.551 1038.98 777.431 1040.02C779.351 1041.02 781.531 1041.52 783.971 1041.52C785.891 1041.52 787.671 1041.18 789.311 1040.5C790.991 1039.82 792.431 1038.78 793.631 1037.38L796.031 1040.14C794.631 1041.82 792.871 1043.1 790.751 1043.98C788.671 1044.86 786.371 1045.3 783.851 1045.3ZM820.045 1030.6V1026.88H835.765V1030.6H820.045ZM877.079 1013.2C879.639 1013.2 881.879 1013.7 883.799 1014.7C885.759 1015.66 887.279 1017.14 888.359 1019.14C889.479 1021.14 890.039 1023.66 890.039 1026.7V1045H885.779V1027.12C885.779 1023.8 884.939 1021.3 883.259 1019.62C881.619 1017.9 879.299 1017.04 876.299 1017.04C874.059 1017.04 872.099 1017.5 870.419 1018.42C868.779 1019.3 867.499 1020.6 866.579 1022.32C865.699 1024 865.259 1026.04 865.259 1028.44V1045H860.999V1000.48H865.259V1022.14L864.419 1020.52C865.419 1018.24 867.019 1016.46 869.219 1015.18C871.419 1013.86 874.039 1013.2 877.079 1013.2ZM901.545 1045V1013.5H905.805V1045H901.545ZM903.705 1006.54C902.825 1006.54 902.085 1006.24 901.485 1005.64C900.885 1005.04 900.585 1004.32 900.585 1003.48C900.585 1002.64 900.885 1001.94 901.485 1001.38C902.085 1000.78 902.825 1000.48 903.705 1000.48C904.585 1000.48 905.325 1000.76 905.925 1001.32C906.525 1001.88 906.825 1002.58 906.825 1003.42C906.825 1004.3 906.525 1005.04 905.925 1005.64C905.365 1006.24 904.625 1006.54 903.705 1006.54ZM931.099 1056.94C928.219 1056.94 925.459 1056.52 922.819 1055.68C920.179 1054.84 918.039 1053.64 916.399 1052.08L918.559 1048.84C920.039 1050.16 921.859 1051.2 924.019 1051.96C926.219 1052.76 928.539 1053.16 930.979 1053.16C934.979 1053.16 937.919 1052.22 939.799 1050.34C941.679 1048.5 942.619 1045.62 942.619 1041.7V1033.84L943.219 1028.44L942.799 1023.04V1013.5H946.879V1041.16C946.879 1046.6 945.539 1050.58 942.859 1053.1C940.219 1055.66 936.299 1056.94 931.099 1056.94ZM930.319 1043.8C927.319 1043.8 924.619 1043.16 922.219 1041.88C919.819 1040.56 917.919 1038.74 916.519 1036.42C915.159 1034.1 914.479 1031.44 914.479 1028.44C914.479 1025.44 915.159 1022.8 916.519 1020.52C917.919 1018.2 919.819 1016.4 922.219 1015.12C924.619 1013.84 927.319 1013.2 930.319 1013.2C933.119 1013.2 935.639 1013.78 937.879 1014.94C940.119 1016.1 941.899 1017.82 943.219 1020.1C944.539 1022.38 945.199 1025.16 945.199 1028.44C945.199 1031.72 944.539 1034.5 943.219 1036.78C941.899 1039.06 940.119 1040.8 937.879 1042C935.639 1043.2 933.119 1043.8 930.319 1043.8ZM930.739 1040.02C933.059 1040.02 935.119 1039.54 936.919 1038.58C938.719 1037.58 940.139 1036.22 941.179 1034.5C942.219 1032.74 942.739 1030.72 942.739 1028.44C942.739 1026.16 942.219 1024.16 941.179 1022.44C940.139 1020.72 938.719 1019.38 936.919 1018.42C935.119 1017.42 933.059 1016.92 930.739 1016.92C928.459 1016.92 926.399 1017.42 924.559 1018.42C922.759 1019.38 921.339 1020.72 920.299 1022.44C919.299 1024.16 918.799 1026.16 918.799 1028.44C918.799 1030.72 919.299 1032.74 920.299 1034.5C921.339 1036.22 922.759 1037.58 924.559 1038.58C926.399 1039.54 928.459 1040.02 930.739 1040.02ZM974.813 1013.2C977.373 1013.2 979.613 1013.7 981.533 1014.7C983.493 1015.66 985.013 1017.14 986.093 1019.14C987.213 1021.14 987.773 1023.66 987.773 1026.7V1045H983.513V1027.12C983.513 1023.8 982.673 1021.3 980.993 1019.62C979.353 1017.9 977.033 1017.04 974.033 1017.04C971.793 1017.04 969.833 1017.5 968.153 1018.42C966.513 1019.3 965.233 1020.6 964.313 1022.32C963.433 1024 962.993 1026.04 962.993 1028.44V1045H958.733V1000.48H962.993V1022.14L962.153 1020.52C963.153 1018.24 964.753 1016.46 966.953 1015.18C969.153 1013.86 971.773 1013.2 974.813 1013.2ZM1031.24 1045.3C1028.52 1045.3 1026.06 1044.68 1023.86 1043.44C1021.66 1042.16 1019.9 1040.34 1018.58 1037.98C1017.3 1035.58 1016.66 1032.66 1016.66 1029.22C1016.66 1025.78 1017.3 1022.88 1018.58 1020.52C1019.86 1018.12 1021.6 1016.3 1023.8 1015.06C1026 1013.82 1028.48 1013.2 1031.24 1013.2C1034.24 1013.2 1036.92 1013.88 1039.28 1015.24C1041.68 1016.56 1043.56 1018.44 1044.92 1020.88C1046.28 1023.28 1046.96 1026.06 1046.96 1029.22C1046.96 1032.42 1046.28 1035.22 1044.92 1037.62C1043.56 1040.02 1041.68 1041.9 1039.28 1043.26C1036.92 1044.62 1034.24 1045.3 1031.24 1045.3ZM1014.98 1056.64V1013.5H1019.06V1022.98L1018.64 1029.28L1019.24 1035.64V1056.64H1014.98ZM1030.94 1041.52C1033.18 1041.52 1035.18 1041.02 1036.94 1040.02C1038.7 1038.98 1040.1 1037.54 1041.14 1035.7C1042.18 1033.82 1042.7 1031.66 1042.7 1029.22C1042.7 1026.78 1042.18 1024.64 1041.14 1022.8C1040.1 1020.96 1038.7 1019.52 1036.94 1018.48C1035.18 1017.44 1033.18 1016.92 1030.94 1016.92C1028.7 1016.92 1026.68 1017.44 1024.88 1018.48C1023.12 1019.52 1021.72 1020.96 1020.68 1022.8C1019.68 1024.64 1019.18 1026.78 1019.18 1029.22C1019.18 1031.66 1019.68 1033.82 1020.68 1035.7C1021.72 1037.54 1023.12 1038.98 1024.88 1040.02C1026.68 1041.02 1028.7 1041.52 1030.94 1041.52ZM1055.65 1045V1013.5H1059.73V1022.08L1059.31 1020.58C1060.19 1018.18 1061.67 1016.36 1063.75 1015.12C1065.83 1013.84 1068.41 1013.2 1071.49 1013.2V1017.34C1071.33 1017.34 1071.17 1017.34 1071.01 1017.34C1070.85 1017.3 1070.69 1017.28 1070.53 1017.28C1067.21 1017.28 1064.61 1018.3 1062.73 1020.34C1060.85 1022.34 1059.91 1025.2 1059.91 1028.92V1045H1055.65ZM1091.81 1045.3C1088.77 1045.3 1086.03 1044.62 1083.59 1043.26C1081.19 1041.86 1079.29 1039.96 1077.89 1037.56C1076.49 1035.12 1075.79 1032.34 1075.79 1029.22C1075.79 1026.06 1076.49 1023.28 1077.89 1020.88C1079.29 1018.48 1081.19 1016.6 1083.59 1015.24C1085.99 1013.88 1088.73 1013.2 1091.81 1013.2C1094.93 1013.2 1097.69 1013.88 1100.09 1015.24C1102.53 1016.6 1104.43 1018.48 1105.79 1020.88C1107.19 1023.28 1107.89 1026.06 1107.89 1029.22C1107.89 1032.34 1107.19 1035.12 1105.79 1037.56C1104.43 1039.96 1102.53 1041.86 1100.09 1043.26C1097.65 1044.62 1094.89 1045.3 1091.81 1045.3ZM1091.81 1041.52C1094.09 1041.52 1096.11 1041.02 1097.87 1040.02C1099.63 1038.98 1101.01 1037.54 1102.01 1035.7C1103.05 1033.82 1103.57 1031.66 1103.57 1029.22C1103.57 1026.74 1103.05 1024.58 1102.01 1022.74C1101.01 1020.9 1099.63 1019.48 1097.87 1018.48C1096.11 1017.44 1094.11 1016.92 1091.87 1016.92C1089.63 1016.92 1087.63 1017.44 1085.87 1018.48C1084.11 1019.48 1082.71 1020.9 1081.67 1022.74C1080.63 1024.58 1080.11 1026.74 1080.11 1029.22C1080.11 1031.66 1080.63 1033.82 1081.67 1035.7C1082.71 1037.54 1084.11 1038.98 1085.87 1040.02C1087.63 1041.02 1089.61 1041.52 1091.81 1041.52ZM1126.54 1045.3C1123.58 1045.3 1121.3 1044.5 1119.7 1042.9C1118.1 1041.3 1117.3 1039.04 1117.3 1036.12V1006.54H1121.56V1035.88C1121.56 1037.72 1122.02 1039.14 1122.94 1040.14C1123.9 1041.14 1125.26 1041.64 1127.02 1041.64C1128.9 1041.64 1130.46 1041.1 1131.7 1040.02L1133.2 1043.08C1132.36 1043.84 1131.34 1044.4 1130.14 1044.76C1128.98 1045.12 1127.78 1045.3 1126.54 1045.3ZM1111.66 1017.04V1013.5H1131.16V1017.04H1111.66ZM1153.23 1045.3C1149.95 1045.3 1147.07 1044.62 1144.59 1043.26C1142.11 1041.86 1140.17 1039.96 1138.77 1037.56C1137.37 1035.12 1136.67 1032.34 1136.67 1029.22C1136.67 1026.1 1137.33 1023.34 1138.65 1020.94C1140.01 1018.54 1141.85 1016.66 1144.17 1015.3C1146.53 1013.9 1149.17 1013.2 1152.09 1013.2C1155.05 1013.2 1157.67 1013.88 1159.95 1015.24C1162.27 1016.56 1164.09 1018.44 1165.41 1020.88C1166.73 1023.28 1167.39 1026.06 1167.39 1029.22C1167.39 1029.42 1167.37 1029.64 1167.33 1029.88C1167.33 1030.08 1167.33 1030.3 1167.33 1030.54H1139.91V1027.36H1165.05L1163.37 1028.62C1163.37 1026.34 1162.87 1024.32 1161.87 1022.56C1160.91 1020.76 1159.59 1019.36 1157.91 1018.36C1156.23 1017.36 1154.29 1016.86 1152.09 1016.86C1149.93 1016.86 1147.99 1017.36 1146.27 1018.36C1144.55 1019.36 1143.21 1020.76 1142.25 1022.56C1141.29 1024.36 1140.81 1026.42 1140.81 1028.74V1029.4C1140.81 1031.8 1141.33 1033.92 1142.37 1035.76C1143.45 1037.56 1144.93 1038.98 1146.81 1040.02C1148.73 1041.02 1150.91 1041.52 1153.35 1041.52C1155.27 1041.52 1157.05 1041.18 1158.69 1040.5C1160.37 1039.82 1161.81 1038.78 1163.01 1037.38L1165.41 1040.14C1164.01 1041.82 1162.25 1043.1 1160.13 1043.98C1158.05 1044.86 1155.75 1045.3 1153.23 1045.3ZM1176.06 1045V1013.5H1180.32V1045H1176.06ZM1178.22 1006.54C1177.34 1006.54 1176.6 1006.24 1176 1005.64C1175.4 1005.04 1175.1 1004.32 1175.1 1003.48C1175.1 1002.64 1175.4 1001.94 1176 1001.38C1176.6 1000.78 1177.34 1000.48 1178.22 1000.48C1179.1 1000.48 1179.84 1000.76 1180.44 1001.32C1181.04 1001.88 1181.34 1002.58 1181.34 1003.42C1181.34 1004.3 1181.04 1005.04 1180.44 1005.64C1179.88 1006.24 1179.14 1006.54 1178.22 1006.54ZM1208.25 1013.2C1210.81 1013.2 1213.05 1013.7 1214.97 1014.7C1216.93 1015.66 1218.45 1017.14 1219.53 1019.14C1220.65 1021.14 1221.21 1023.66 1221.21 1026.7V1045H1216.95V1027.12C1216.95 1023.8 1216.11 1021.3 1214.43 1019.62C1212.79 1017.9 1210.47 1017.04 1207.47 1017.04C1205.23 1017.04 1203.27 1017.5 1201.59 1018.42C1199.95 1019.3 1198.67 1020.6 1197.75 1022.32C1196.87 1024 1196.43 1026.04 1196.43 1028.44V1045H1192.17V1013.5H1196.25V1022.14L1195.59 1020.52C1196.59 1018.24 1198.19 1016.46 1200.39 1015.18C1202.59 1013.86 1205.21 1013.2 1208.25 1013.2ZM1261.5 1045.3C1258.38 1045.3 1255.58 1044.62 1253.1 1043.26C1250.66 1041.86 1248.74 1039.96 1247.34 1037.56C1245.94 1035.12 1245.24 1032.34 1245.24 1029.22C1245.24 1026.06 1245.94 1023.28 1247.34 1020.88C1248.74 1018.48 1250.66 1016.6 1253.1 1015.24C1255.58 1013.88 1258.38 1013.2 1261.5 1013.2C1264.18 1013.2 1266.6 1013.72 1268.76 1014.76C1270.92 1015.8 1272.62 1017.36 1273.86 1019.44L1270.68 1021.6C1269.6 1020 1268.26 1018.82 1266.66 1018.06C1265.06 1017.3 1263.32 1016.92 1261.44 1016.92C1259.2 1016.92 1257.18 1017.44 1255.38 1018.48C1253.58 1019.48 1252.16 1020.9 1251.12 1022.74C1250.08 1024.58 1249.56 1026.74 1249.56 1029.22C1249.56 1031.7 1250.08 1033.86 1251.12 1035.7C1252.16 1037.54 1253.58 1038.98 1255.38 1040.02C1257.18 1041.02 1259.2 1041.52 1261.44 1041.52C1263.32 1041.52 1265.06 1041.14 1266.66 1040.38C1268.26 1039.62 1269.6 1038.46 1270.68 1036.9L1273.86 1039.06C1272.62 1041.1 1270.92 1042.66 1268.76 1043.74C1266.6 1044.78 1264.18 1045.3 1261.5 1045.3ZM1294.54 1045.3C1291.5 1045.3 1288.76 1044.62 1286.32 1043.26C1283.92 1041.86 1282.02 1039.96 1280.62 1037.56C1279.22 1035.12 1278.52 1032.34 1278.52 1029.22C1278.52 1026.06 1279.22 1023.28 1280.62 1020.88C1282.02 1018.48 1283.92 1016.6 1286.32 1015.24C1288.72 1013.88 1291.46 1013.2 1294.54 1013.2C1297.66 1013.2 1300.42 1013.88 1302.82 1015.24C1305.26 1016.6 1307.16 1018.48 1308.52 1020.88C1309.92 1023.28 1310.62 1026.06 1310.62 1029.22C1310.62 1032.34 1309.92 1035.12 1308.52 1037.56C1307.16 1039.96 1305.26 1041.86 1302.82 1043.26C1300.38 1044.62 1297.62 1045.3 1294.54 1045.3ZM1294.54 1041.52C1296.82 1041.52 1298.84 1041.02 1300.6 1040.02C1302.36 1038.98 1303.74 1037.54 1304.74 1035.7C1305.78 1033.82 1306.3 1031.66 1306.3 1029.22C1306.3 1026.74 1305.78 1024.58 1304.74 1022.74C1303.74 1020.9 1302.36 1019.48 1300.6 1018.48C1298.84 1017.44 1296.84 1016.92 1294.6 1016.92C1292.36 1016.92 1290.36 1017.44 1288.6 1018.48C1286.84 1019.48 1285.44 1020.9 1284.4 1022.74C1283.36 1024.58 1282.84 1026.74 1282.84 1029.22C1282.84 1031.66 1283.36 1033.82 1284.4 1035.7C1285.44 1037.54 1286.84 1038.98 1288.6 1040.02C1290.36 1041.02 1292.34 1041.52 1294.54 1041.52ZM1332.16 1045.3C1329.12 1045.3 1326.38 1044.62 1323.94 1043.26C1321.54 1041.86 1319.64 1039.96 1318.24 1037.56C1316.84 1035.12 1316.14 1032.34 1316.14 1029.22C1316.14 1026.06 1316.84 1023.28 1318.24 1020.88C1319.64 1018.48 1321.54 1016.6 1323.94 1015.24C1326.34 1013.88 1329.08 1013.2 1332.16 1013.2C1335.28 1013.2 1338.04 1013.88 1340.44 1015.24C1342.88 1016.6 1344.78 1018.48 1346.14 1020.88C1347.54 1023.28 1348.24 1026.06 1348.24 1029.22C1348.24 1032.34 1347.54 1035.12 1346.14 1037.56C1344.78 1039.96 1342.88 1041.86 1340.44 1043.26C1338 1044.62 1335.24 1045.3 1332.16 1045.3ZM1332.16 1041.52C1334.44 1041.52 1336.46 1041.02 1338.22 1040.02C1339.98 1038.98 1341.36 1037.54 1342.36 1035.7C1343.4 1033.82 1343.92 1031.66 1343.92 1029.22C1343.92 1026.74 1343.4 1024.58 1342.36 1022.74C1341.36 1020.9 1339.98 1019.48 1338.22 1018.48C1336.46 1017.44 1334.46 1016.92 1332.22 1016.92C1329.98 1016.92 1327.98 1017.44 1326.22 1018.48C1324.46 1019.48 1323.06 1020.9 1322.02 1022.74C1320.98 1024.58 1320.46 1026.74 1320.46 1029.22C1320.46 1031.66 1320.98 1033.82 1322.02 1035.7C1323.06 1037.54 1324.46 1038.98 1326.22 1040.02C1327.98 1041.02 1329.96 1041.52 1332.16 1041.52ZM1363.06 1038.4L1363.3 1027L1378.36 1012.72H1389.52L1375.06 1027.42L1370.2 1031.38L1363.06 1038.4ZM1355.32 1045V1000.48H1364.68V1045H1355.32ZM1379.38 1045L1368.46 1031.44L1374.34 1024.18L1390.72 1045H1379.38ZM1394.93 1045V1012.72H1404.29V1045H1394.93ZM1399.61 1008.22C1397.89 1008.22 1396.49 1007.72 1395.41 1006.72C1394.33 1005.72 1393.79 1004.48 1393.79 1003C1393.79 1001.52 1394.33 1000.28 1395.41 999.28C1396.49 998.28 1397.89 997.78 1399.61 997.78C1401.33 997.78 1402.73 998.26 1403.81 999.22C1404.89 1000.14 1405.43 1001.34 1405.43 1002.82C1405.43 1004.38 1404.89 1005.68 1403.81 1006.72C1402.77 1007.72 1401.37 1008.22 1399.61 1008.22ZM1428.99 1045.48C1425.31 1045.48 1422.07 1044.76 1419.27 1043.32C1416.51 1041.88 1414.37 1039.92 1412.85 1037.44C1411.33 1034.92 1410.57 1032.06 1410.57 1028.86C1410.57 1025.62 1411.31 1022.76 1412.79 1020.28C1414.31 1017.76 1416.37 1015.8 1418.97 1014.4C1421.57 1012.96 1424.51 1012.24 1427.79 1012.24C1430.95 1012.24 1433.79 1012.92 1436.31 1014.28C1438.87 1015.6 1440.89 1017.52 1442.37 1020.04C1443.85 1022.52 1444.59 1025.5 1444.59 1028.98C1444.59 1029.34 1444.57 1029.76 1444.53 1030.24C1444.49 1030.68 1444.45 1031.1 1444.41 1031.5H1418.19V1026.04H1439.49L1435.89 1027.66C1435.89 1025.98 1435.55 1024.52 1434.87 1023.28C1434.19 1022.04 1433.25 1021.08 1432.05 1020.4C1430.85 1019.68 1429.45 1019.32 1427.85 1019.32C1426.25 1019.32 1424.83 1019.68 1423.59 1020.4C1422.39 1021.08 1421.45 1022.06 1420.77 1023.34C1420.09 1024.58 1419.75 1026.06 1419.75 1027.78V1029.22C1419.75 1030.98 1420.13 1032.54 1420.89 1033.9C1421.69 1035.22 1422.79 1036.24 1424.19 1036.96C1425.63 1037.64 1427.31 1037.98 1429.23 1037.98C1430.95 1037.98 1432.45 1037.72 1433.73 1037.2C1435.05 1036.68 1436.25 1035.9 1437.33 1034.86L1442.31 1040.26C1440.83 1041.94 1438.97 1043.24 1436.73 1044.16C1434.49 1045.04 1431.91 1045.48 1428.99 1045.48Z" fill="#9A0002"/>
<defs>
<filter id="filter0_d_207_121" x="318.766" y="744.012" width="1268.91" height="224.129" filterUnits="userSpaceOnUse" color-interpolation-filters="sRGB">
<feFlood flood-opacity="0" result="BackgroundImageFix"/>
<feColorMatrix in="SourceAlpha" type="matrix" values="0 0 0 0 0 0 0 0 0 0 0 0 0 0 0 0 0 0 127 0" result="hardAlpha"/>
<feOffset dy="4"/>
<feGaussianBlur stdDeviation="2"/>
<feComposite in2="hardAlpha" operator="out"/>
<feColorMatrix type="matrix" values="0 0 0 0 0 0 0 0 0 0 0 0 0 0 0 0 0 0 0.25 0"/>
<feBlend mode="normal" in2="BackgroundImageFix" result="effect1_dropShadow_207_121"/>
<feBlend mode="normal" in="SourceGraphic" in2="effect1_dropShadow_207_121" result="shape"/>
</filter>
</defs>
</svg>
